<?xml version="1.0" encoding="utf-8"?>
<!-- Generator: Adobe Illustrator 23.0.3, SVG Export Plug-In . SVG Version: 6.00 Build 0)  -->
<svg version="1.1" id="Layer_1" xmlns="http://www.w3.org/2000/svg" xmlns:xlink="http://www.w3.org/1999/xlink" x="0px" y="0px"
	 viewBox="0 0 1408 388" style="enable-background:new 0 0 1408 388;" xml:space="preserve">
<style type="text/css">
	.st0{enable-background:new    ;}
	.st1{fill:url(#SVGID_1_);}
</style>
<g class="st0">
	<path d="M478,192.8h-15.3v69.1h-28.4v-69.1H424v-23.6h10.3v-2.7c0-11.4,3.3-20.1,9.8-26c6.5-5.9,16.1-8.9,28.7-8.9
		c2.1,0,3.7,0.1,4.6,0.2V156c-5.4-0.3-9.2,0.4-11.5,2.3c-2.2,1.9-3.3,5.3-3.3,10.1v0.8H478V192.8z"/>
	<path d="M519.6,139v122.8h-28.4V139H519.6z"/>
	<path d="M557.9,257.4c-7.2-3.9-12.9-9.4-17.1-16.6c-4.1-7.2-6.2-15.6-6.2-25.2c0-9.5,2.1-17.9,6.3-25.1c4.2-7.2,10-12.8,17.3-16.7
		c7.3-3.9,15.5-5.8,24.6-5.8c9.1,0,17.3,1.9,24.6,5.8c7.3,3.9,13.1,9.4,17.3,16.7c4.2,7.2,6.3,15.6,6.3,25.1
		c0,9.5-2.1,17.9-6.4,25.1c-4.3,7.2-10.1,12.8-17.4,16.7c-7.4,3.9-15.6,5.8-24.7,5.8C573.3,263.2,565.1,261.3,557.9,257.4z
		 M596.2,232.6c3.8-4,5.7-9.7,5.7-17.1c0-7.4-1.9-13.1-5.6-17.1c-3.7-4-8.3-6-13.7-6c-5.5,0-10.1,2-13.8,5.9
		c-3.7,3.9-5.5,9.7-5.5,17.2c0,7.4,1.8,13.1,5.4,17.1c3.6,4,8.1,6,13.5,6C587.8,238.6,592.4,236.6,596.2,232.6z"/>
	<path d="M663.6,257.4c-7.2-3.9-12.9-9.4-17.1-16.6c-4.1-7.2-6.2-15.6-6.2-25.2c0-9.5,2.1-17.9,6.3-25.1c4.2-7.2,10-12.8,17.3-16.7
		c7.3-3.9,15.5-5.8,24.6-5.8c9.1,0,17.3,1.9,24.6,5.8c7.3,3.9,13.1,9.4,17.3,16.7c4.2,7.2,6.3,15.6,6.3,25.1
		c0,9.5-2.1,17.9-6.4,25.1c-4.3,7.2-10.1,12.8-17.4,16.7c-7.4,3.9-15.6,5.8-24.7,5.8C679.1,263.2,670.9,261.3,663.6,257.4z
		 M702,232.6c3.8-4,5.7-9.7,5.7-17.1c0-7.4-1.9-13.1-5.6-17.1c-3.7-4-8.3-6-13.7-6c-5.5,0-10.1,2-13.8,5.9
		c-3.7,3.9-5.5,9.7-5.5,17.2c0,7.4,1.8,13.1,5.4,17.1c3.6,4,8.1,6,13.5,6C693.5,238.6,698.2,236.6,702,232.6z"/>
	<path d="M792.5,172.6c5-2.9,10.5-4.4,16.6-4.4v30h-7.8c-7.1,0-12.4,1.5-15.9,4.6c-3.5,3-5.3,8.4-5.3,16v43h-28.4v-92.6h28.4v15.4
		C783.4,179.6,787.6,175.6,792.5,172.6z"/>
	<path d="M822.5,190.3c3.6-7.2,8.5-12.7,14.7-16.6c6.2-3.9,13.1-5.8,20.8-5.8c6.1,0,11.6,1.3,16.7,3.8c5,2.5,9,6,11.9,10.3v-43h28.4
		v122.8h-28.4v-13.3c-2.7,4.4-6.4,8-11.4,10.6c-4.9,2.7-10.7,4-17.2,4c-7.6,0-14.6-2-20.8-5.9c-6.2-3.9-11.1-9.5-14.7-16.8
		c-3.6-7.2-5.4-15.6-5.4-25.1C817.1,205.9,818.9,197.5,822.5,190.3z M880.6,198.8c-3.9-4.1-8.7-6.1-14.4-6.1c-5.6,0-10.4,2-14.4,6.1
		c-3.9,4-5.9,9.6-5.9,16.7c0,7.1,2,12.7,5.9,16.8c3.9,4.1,8.7,6.2,14.4,6.2c5.6,0,10.4-2,14.4-6.1c3.9-4.1,5.9-9.7,5.9-16.8
		C886.5,208.5,884.5,202.9,880.6,198.8z"/>
	<path d="M958.8,139v122.8h-28.4V139H958.8z"/>
	<path d="M1063.2,222.4H999c0.4,5.8,2.3,10.2,5.6,13.2c3.3,3,7.3,4.6,12,4.6c7.1,0,12-3,14.8-9h30.2c-1.6,6.1-4.3,11.6-8.4,16.4
		c-4,4.9-9.1,8.7-15.2,11.5c-6.1,2.8-12.9,4.2-20.4,4.2c-9.1,0-17.2-1.9-24.2-5.8c-7.1-3.9-12.6-9.4-16.6-16.6c-4-7.2-6-15.6-6-25.2
		c0-9.6,2-18,5.9-25.2c3.9-7.2,9.4-12.7,16.5-16.6c7.1-3.9,15.2-5.8,24.4-5.8c9,0,16.9,1.9,23.9,5.6c7,3.8,12.4,9.1,16.4,16.1
		c3.9,7,5.9,15.1,5.9,24.4C1063.7,216.7,1063.6,219.5,1063.2,222.4z M1034.7,206.6c0-4.9-1.7-8.7-5-11.6c-3.3-2.9-7.5-4.3-12.5-4.3
		c-4.8,0-8.8,1.4-12,4.1c-3.3,2.8-5.3,6.7-6.1,11.8H1034.7z"/>
</g>
<g>
	<g>
		<linearGradient id="SVGID_1_" gradientUnits="userSpaceOnUse" x1="137.114" y1="124.215" x2="278.1728" y2="265.2737">
			<stop  offset="0" style="stop-color:#5045E3"/>
			<stop  offset="0.1491" style="stop-color:#5346DF"/>
			<stop  offset="0.2888" style="stop-color:#5C48D4"/>
			<stop  offset="0.4247" style="stop-color:#6B4BC1"/>
			<stop  offset="0.5585" style="stop-color:#8050A6"/>
			<stop  offset="0.6905" style="stop-color:#9B5584"/>
			<stop  offset="0.8213" style="stop-color:#BD5D5A"/>
			<stop  offset="0.9487" style="stop-color:#E46529"/>
			<stop  offset="1" style="stop-color:#F56913"/>
		</linearGradient>
		<path class="st1" d="M103.5,275.6v30.3c0,7.6,6.1,13.7,13.7,13.7h30.3c7.6,0,13.7-6.1,13.7-13.7v-44h-44
			C109.6,261.9,103.5,268,103.5,275.6z M232.6,144.9h81.2c7.6,0,13.7-6.1,13.7-13.7V99.3c0-7.6-6.1-13.7-13.7-13.7H174.9
			c-7.6,0-13.7,6.1-13.7,13.7v162.6h152.6c7.6,0,13.7-6.1,13.7-13.7v-31.9c0-7.6-6.1-13.7-13.7-13.7h-81.2
			c-7.6,0-13.7-6.1-13.7-13.7v-30.3C218.9,151,225,144.9,232.6,144.9z"/>
	</g>
</g>
</svg>
